<svg width="169" height="36" viewBox="0 0 169 36" fill="none" xmlns="http://www.w3.org/2000/svg">
<g clip-path="url(#clip0_2019_194)">
<path d="M41.5446 0.5125L37.0214 7.99286L32.9357 14.7446H32.8214L24.7089 14.7321L28.8125 7.94821L32.9554 1.10179L33.3161 0.5L41.5446 0.5125Z" fill="#8DDB90"/>
<path d="M32.8089 28.5715L31.9804 29.9465L28.6661 35.4179L25.4375 29.9394L24.6 28.5269L20.5339 21.6429L16.4679 14.7519L16.4804 14.7197L24.6393 14.7322L24.6696 14.7965L28.7429 21.6804L32.8089 28.5715Z" fill="#8DDB90"/>
<path d="M25.075 0.5125L20.5536 7.99286L16.4679 14.7446H16.3536L8.24107 14.7321L12.3446 7.94821L16.4875 1.10179L16.8482 0.5L25.075 0.5125Z" fill="#8DDB90"/>
<path d="M16.3411 28.5715L15.5107 29.9465L12.1982 35.4179L8.96964 29.9394L8.13214 28.5269L4.06607 21.6429L0 14.7519L0.0125 14.7197L8.17143 14.7322L8.20179 14.7965L12.275 21.6804L16.3411 28.5715Z" fill="#8DDB90"/>
<g transform="translate(0 5.7)">
<path d="M52.3732 11.6375L58.2286 4.04103C58.2704 3.98578 58.3243 3.94092 58.3863 3.90996C58.4482 3.87898 58.5164 3.86273 58.5857 3.86246H60.9071C60.9916 3.86158 61.0746 3.8846 61.1466 3.92885C61.2186 3.9731 61.2764 4.0368 61.3138 4.11257C61.3512 4.18835 61.3662 4.27314 61.3575 4.35715C61.3487 4.44117 61.3164 4.52101 61.2643 4.58746L56.4607 10.7892C56.4061 10.8605 56.3736 10.9463 56.3675 11.0359C56.3616 11.1255 56.3821 11.2149 56.4268 11.2928L61.5036 19.9749C61.5434 20.0432 61.5646 20.1208 61.5648 20.1999C61.5652 20.279 61.5446 20.3567 61.5054 20.4253C61.4661 20.4939 61.4095 20.551 61.3411 20.5908C61.2727 20.6305 61.1952 20.6515 61.1161 20.6517H58.7607C58.682 20.6517 58.6046 20.631 58.5364 20.5919C58.468 20.5528 58.4113 20.4964 58.3714 20.4285L54.6804 14.0839C54.6436 14.0202 54.5916 13.9665 54.5293 13.9275C54.4668 13.8886 54.3957 13.8657 54.3223 13.8607C54.2487 13.8558 54.1754 13.869 54.1082 13.8992C54.0411 13.9294 53.9825 13.9757 53.9375 14.0339L51.6625 16.9464C51.6009 17.0255 51.5675 17.1229 51.5679 17.2232V20.2017C51.5679 20.321 51.5204 20.4355 51.4361 20.5199C51.3516 20.6044 51.2371 20.6517 51.1179 20.6517H49.0768C49.0177 20.6517 48.9593 20.6401 48.9048 20.6174C48.8504 20.5948 48.8009 20.5617 48.7593 20.5198C48.7175 20.478 48.6846 20.4283 48.6621 20.3739C48.6398 20.3192 48.6284 20.2608 48.6286 20.2017V4.30889C48.6284 4.24987 48.6398 4.19139 48.6621 4.13682C48.6846 4.08223 48.7175 4.0326 48.7593 3.9908C48.8009 3.94898 48.8504 3.9158 48.9048 3.89317C48.9593 3.87053 49.0177 3.85889 49.0768 3.85889H51.1179C51.2371 3.85889 51.3516 3.9063 51.4361 3.99067C51.5204 4.07507 51.5679 4.18953 51.5679 4.30889V11.3642C51.5673 11.4583 51.5964 11.5502 51.6511 11.6268C51.7057 11.7034 51.783 11.7609 51.8721 11.7911C51.9611 11.8213 52.0575 11.8227 52.1475 11.7952C52.2373 11.7676 52.3164 11.7124 52.3732 11.6375Z" fill="black"/>
<path d="M63.6446 19.743V4.77514C63.6446 4.53407 63.7404 4.30289 63.9109 4.13243C64.0812 3.96196 64.3125 3.86621 64.5536 3.86621H65.675C65.9161 3.86621 66.1473 3.96196 66.3177 4.13243C66.4882 4.30289 66.5839 4.53407 66.5839 4.77514V9.893C66.5837 10.0129 66.6073 10.1317 66.6534 10.2425C66.6995 10.3532 66.767 10.4537 66.8523 10.5382C66.9375 10.6226 67.0386 10.6892 67.1498 10.7342C67.2611 10.7791 67.38 10.8016 67.5 10.8001H73.1232C73.2425 10.8004 73.3607 10.7771 73.4709 10.7316C73.5813 10.6861 73.6814 10.6193 73.7659 10.5351C73.8502 10.4508 73.9171 10.3507 73.9629 10.2405C74.0086 10.1304 74.0321 10.0123 74.0321 9.893V4.77514C74.0321 4.53407 74.1279 4.30289 74.2984 4.13243C74.4688 3.96196 74.7 3.86621 74.9411 3.86621H76.0625C76.3023 3.86809 76.5316 3.96469 76.7005 4.13494C76.8695 4.30519 76.9643 4.5353 76.9643 4.77514V19.743C76.9643 19.9841 76.8686 20.2153 76.698 20.3857C76.5277 20.5562 76.2964 20.6519 76.0554 20.6519H74.9339C74.6929 20.6519 74.4616 20.5562 74.2912 20.3857C74.1207 20.2153 74.025 19.9841 74.025 19.743V14.4412C74.025 14.3219 74.0014 14.2038 73.9557 14.0936C73.91 13.9835 73.843 13.8834 73.7588 13.7991C73.6743 13.7149 73.5741 13.6481 73.4637 13.6026C73.3536 13.5571 73.2354 13.5338 73.1161 13.5341H67.5C67.3809 13.5338 67.2627 13.5571 67.1525 13.6026C67.0425 13.6481 66.9423 13.715 66.858 13.7992C66.7737 13.8835 66.707 13.9836 66.6614 14.0938C66.6159 14.2039 66.5927 14.322 66.5929 14.4412V19.743C66.5929 19.9841 66.4971 20.2153 66.3266 20.3857C66.1562 20.5562 65.925 20.6519 65.6839 20.6519H64.5536C64.3125 20.6519 64.0812 20.5562 63.9109 20.3857C63.7404 20.2153 63.6446 19.9841 63.6446 19.743Z" fill="black"/>
<path d="M87.4268 3.86621H84.9357C84.86 3.8661 84.7861 3.88939 84.7241 3.93285C84.6621 3.97632 84.615 4.03785 84.5893 4.10907L78.7929 20.1591C78.7729 20.2144 78.7664 20.2739 78.7741 20.3325C78.782 20.3909 78.8036 20.4466 78.8373 20.4948C78.8711 20.5432 78.9161 20.5826 78.9682 20.61C79.0205 20.6373 79.0786 20.6517 79.1375 20.6519H81.4071C81.4832 20.6517 81.5575 20.628 81.6196 20.5839C81.6816 20.5396 81.7284 20.4775 81.7536 20.4055L83.0232 16.7698L83.8964 14.2912L85.8018 8.87157V8.85014C85.8257 8.77614 85.8725 8.71164 85.9354 8.66589C85.9982 8.62014 86.0741 8.5955 86.1518 8.5955C86.2296 8.5955 86.3053 8.62014 86.3682 8.66589C86.4311 8.71164 86.4779 8.77614 86.5018 8.85014V8.86264L88.4321 14.2823L89.2857 16.7698L90.5553 20.4055C90.5805 20.4775 90.6273 20.5396 90.6893 20.5839C90.7514 20.628 90.8257 20.6517 90.9018 20.6519H93.2232C93.2823 20.6519 93.3405 20.6378 93.393 20.6107C93.4455 20.5834 93.4907 20.5439 93.5246 20.4957C93.5586 20.4473 93.5805 20.3914 93.5882 20.3328C93.5961 20.2742 93.5896 20.2146 93.5696 20.1591L87.7714 4.10907C87.7457 4.03814 87.6989 3.9768 87.6373 3.93335C87.5757 3.88993 87.5021 3.86648 87.4268 3.86621Z" fill="black"/>
<path d="M95.3982 4.49121C95.3982 4.32544 95.4641 4.16648 95.5813 4.04926C95.6986 3.93205 95.8575 3.86621 96.0232 3.86621H102.08C105.388 3.86621 107.407 5.58943 107.407 8.38943C107.407 9.82871 106.913 10.9519 105.954 11.6948C105.874 11.7572 105.812 11.8378 105.77 11.9297C105.729 12.0216 105.711 12.122 105.716 12.2226C105.722 12.3232 105.752 12.4209 105.804 12.5074C105.855 12.594 105.927 12.6668 106.013 12.7198C107.107 13.4198 107.661 14.5716 107.661 16.1126C107.661 18.9823 105.663 20.6591 102.195 20.6591H96.0232C95.8575 20.6591 95.6986 20.5932 95.5813 20.476C95.4641 20.3587 95.3982 20.1998 95.3982 20.0341V4.49121ZM98.3375 7.08585V10.4055C98.3375 10.5712 98.4034 10.7302 98.5205 10.8474C98.6379 10.9646 98.7968 11.0305 98.9625 11.0305H101.896C103.504 11.0305 104.396 10.1805 104.396 8.68764C104.396 7.24121 103.479 6.46085 101.825 6.46085H98.9679C98.8854 6.46014 98.8036 6.47578 98.727 6.50687C98.6505 6.53798 98.5811 6.58389 98.5225 6.642C98.4639 6.7001 98.4173 6.76925 98.3855 6.84543C98.3539 6.9216 98.3375 7.00332 98.3375 7.08585ZM98.3375 14.1359V17.4305C98.3375 17.5964 98.4032 17.7556 98.5205 17.8731C98.6377 17.9906 98.7966 18.0568 98.9625 18.0573H102.08C103.734 18.0573 104.652 17.2537 104.652 15.7359C104.652 14.3073 103.711 13.5091 102.08 13.5091H98.9625C98.8804 13.5091 98.7989 13.5253 98.7229 13.5568C98.647 13.5883 98.578 13.6345 98.52 13.6927C98.4618 13.751 98.4159 13.8201 98.3846 13.8961C98.3532 13.9722 98.3373 14.0536 98.3375 14.1359Z" fill="black"/>
<path d="M112.021 20.6516H110.691C110.585 20.6516 110.481 20.6307 110.383 20.5902C110.286 20.5498 110.197 20.4903 110.122 20.4155C110.048 20.3407 109.988 20.2519 109.948 20.1543C109.908 20.0566 109.887 19.9519 109.887 19.8462V4.66766C109.887 4.56198 109.908 4.45729 109.948 4.35959C109.988 4.26189 110.048 4.17309 110.122 4.09829C110.197 4.02348 110.286 3.96413 110.383 3.92364C110.481 3.88314 110.585 3.8623 110.691 3.8623H112.021C112.127 3.8623 112.232 3.88314 112.329 3.92364C112.427 3.96413 112.516 4.02348 112.59 4.09829C112.665 4.17309 112.724 4.26189 112.764 4.35959C112.805 4.45729 112.825 4.56198 112.825 4.66766V19.8462C112.825 19.9519 112.805 20.0566 112.764 20.1543C112.724 20.2519 112.665 20.3407 112.59 20.4155C112.516 20.4903 112.427 20.5498 112.329 20.5902C112.232 20.6307 112.127 20.6516 112.021 20.6516Z" fill="black"/>
<path d="M123.284 3.86621H134.787C134.955 3.86621 135.116 3.9328 135.234 4.05135C135.353 4.16991 135.42 4.33069 135.42 4.49835V5.94478C135.418 6.1115 135.351 6.27093 135.233 6.38832C135.114 6.50571 134.954 6.57157 134.787 6.57157H131.137C130.97 6.57157 130.809 6.63816 130.691 6.75671C130.572 6.87526 130.505 7.03605 130.505 7.20371V20.0162C130.505 20.1839 130.439 20.3446 130.32 20.4632C130.202 20.5817 130.041 20.6484 129.873 20.6484H128.198C128.031 20.6484 127.87 20.5817 127.751 20.4632C127.633 20.3446 127.566 20.1839 127.566 20.0162V7.20728C127.567 7.12396 127.551 7.04137 127.519 6.96426C127.488 6.88716 127.441 6.81705 127.382 6.75798C127.323 6.69889 127.254 6.65201 127.177 6.62001C127.1 6.58803 127.017 6.57157 126.934 6.57157H123.284C123.117 6.57157 122.956 6.50521 122.838 6.38705C122.719 6.26889 122.652 6.10855 122.652 5.94121V4.49478C122.653 4.32775 122.72 4.16787 122.838 4.05009C122.957 3.93232 123.117 3.86621 123.284 3.86621Z" fill="black"/>
<path d="M137.209 20.2034V4.31052C137.209 4.19164 137.256 4.07763 137.34 3.99357C137.424 3.90952 137.538 3.8623 137.657 3.8623H147.186C147.305 3.8623 147.419 3.90952 147.503 3.99357C147.587 4.07763 147.634 4.19164 147.634 4.31052V6.12838C147.634 6.18714 147.622 6.24534 147.6 6.29963C147.577 6.35389 147.544 6.4032 147.502 6.44468C147.461 6.48614 147.411 6.519 147.357 6.54132C147.303 6.56366 147.244 6.57504 147.186 6.5748H140.596C140.538 6.5748 140.479 6.58639 140.425 6.60891C140.371 6.63145 140.321 6.66445 140.279 6.70607C140.238 6.7477 140.205 6.79711 140.182 6.85148C140.16 6.90586 140.148 6.96414 140.148 7.02302V10.4444C140.148 10.5633 140.195 10.6773 140.279 10.7614C140.364 10.8454 140.478 10.8927 140.596 10.8927H146.405C146.464 10.8924 146.522 10.9038 146.577 10.9261C146.631 10.9484 146.681 10.9813 146.722 11.0228C146.764 11.0643 146.797 11.1136 146.819 11.1678C146.842 11.2221 146.854 11.2803 146.854 11.3391V13.0391C146.854 13.1579 146.806 13.272 146.722 13.356C146.638 13.4401 146.524 13.4873 146.405 13.4873H140.596C140.538 13.4871 140.479 13.4984 140.425 13.5208C140.371 13.5431 140.321 13.5759 140.28 13.6174C140.238 13.6589 140.205 13.7082 140.182 13.7625C140.16 13.8168 140.148 13.8749 140.148 13.9337V17.4944C140.148 17.5532 140.16 17.6114 140.182 17.6657C140.205 17.72 140.238 17.7693 140.28 17.8108C140.321 17.8522 140.371 17.8851 140.425 17.9074C140.479 17.9297 140.538 17.9411 140.596 17.9409H147.186C147.305 17.9409 147.419 17.9881 147.503 18.0721C147.587 18.1562 147.634 18.2702 147.634 18.3891V20.2034C147.634 20.3223 147.587 20.4362 147.503 20.5203C147.419 20.6044 147.305 20.6516 147.186 20.6516H137.657C137.538 20.6516 137.424 20.6044 137.34 20.5203C137.256 20.4362 137.209 20.3223 137.209 20.2034Z" fill="black"/>
<path d="M161.709 19.848C160.427 20.5686 158.978 20.9382 157.507 20.9195C152.707 20.9195 149.402 17.3605 149.402 12.2391C149.402 7.11769 152.73 3.56055 157.53 3.56055C162.33 3.56055 165.68 7.11948 165.68 12.2391C165.68 14.6516 164.946 16.7177 163.637 18.232L164.621 19.332C164.727 19.4498 164.809 19.5873 164.861 19.7368C164.914 19.8861 164.936 20.0445 164.927 20.2025C164.918 20.3605 164.879 20.5154 164.81 20.658C164.741 20.8007 164.645 20.9284 164.527 21.0338C164.398 21.1484 164.248 21.2364 164.085 21.293C163.922 21.3497 163.75 21.3734 163.577 21.3634C163.405 21.3532 163.237 21.3093 163.082 21.2341C162.927 21.1588 162.788 21.0538 162.673 20.9248L161.709 19.848ZM161.616 15.9445C162.252 14.8159 162.584 13.5417 162.58 12.2463C162.58 11.5748 162.539 8.74805 160.402 7.24626C159.557 6.66951 158.553 6.37108 157.53 6.39269C154.454 6.39269 152.479 8.6659 152.479 12.248C152.479 14.532 153.28 16.282 154.657 17.248C155.782 18.0409 157.061 18.098 157.53 18.0998C158.34 18.1282 159.144 17.944 159.861 17.5656C160.577 17.1871 161.183 16.6276 161.616 15.9427V15.9445Z" fill="black"/>
<path d="M122.679 12.1069H116.607C116.311 12.1069 116.071 12.3468 116.071 12.6426V14.2498C116.071 14.5457 116.311 14.7855 116.607 14.7855H122.679C122.974 14.7855 123.214 14.5457 123.214 14.2498V12.6426C123.214 12.3468 122.974 12.1069 122.679 12.1069Z" fill="black"/>
</g>
</g>
<defs>
<clipPath id="clip0_2019_194">
<rect width="168.214" height="35" fill="white" transform="translate(0 0.5)"/>
</clipPath>
</defs>
</svg>
